Coordinates
version=1
nRows=26
nColumns=24
inDegrees=yes

Units are S.I. units (second, meters, Newtons, ...)
Angles are in degrees.

endheader
time	pelvis_tilt	pelvis_list	pelvis_rotation	pelvis_tx	pelvis_ty	pelvis_tz	hip_flexion_r	hip_adduction_r	hip_rotation_r	knee_angle_r	ankle_angle_r	subtalar_angle_r	mtp_angle_r	hip_flexion_l	hip_adduction_l	hip_rotation_l	knee_angle_l	ankle_angle_l	subtalar_angle_l	mtp_angle_l	lumbar_extension	lumbar_bending	lumbar_rotation
      0.01000000	     65.03106420	      4.80755308	      1.14110726	      0.55953925	      1.05745252	     -0.30818165	      1.56777931	    -13.09931399	      2.65638992	    -60.83570587	     -7.50258066	     -0.26248441	      0.00000000	      5.80073989	     -6.58304716	     10.02081837	      0.86670666	    -22.38194155	      9.66074290	      0.00000000	      0.00000000	      0.00000000	      0.00000000
      0.02000000	     65.01972911	      4.82277780	      1.11306719	      0.55950007	      1.05753796	     -0.30820743	      1.54742187	    -13.08927654	      2.68349906	    -60.82774534	     -7.48162513	     -0.28343540	      0.00000000	      5.81266994	     -6.57357814	      9.92830870	      0.85073339	    -22.32803806	      9.60059319	      0.00000000	      0.00000000	      0.00000000	      0.00000000
      0.03000000	     65.02839900	      4.82819677	      1.11154519	      0.55945845	      1.05756374	     -0.30821099	      1.52859343	    -13.06989668	      2.67827511	    -60.87093638	     -7.50686458	     -0.28784924	      0.00000000	      5.80800169	     -6.56966376	      9.87325848	      0.84920417	    -22.31332875	      9.56401409	      0.00000000	      0.00000000	      0.00000000	      0.00000000
      0.04000000	     65.04685070	      4.82793438	      1.12595959	      0.55942294	      1.05753590	     -0.30815972	      1.51375350	    -13.04542657	      2.65369656	    -60.94348544	     -7.56270177	     -0.28186137	      0.00000000	      5.79042182	     -6.57351528	      9.87822738	      0.87172989	    -22.37182205	      9.55987074	      0.00000000	      0.00000000	      0.00000000	      0.00000000
      0.05000000	     65.06418461	      4.82860439	      1.14567431	      0.55939268	      1.05747826	     -0.30803903	      1.50590009	    -13.02248654	      2.62418443	    -61.02143432	     -7.63172001	     -0.27168440	      0.00000000	      5.76461394	     -6.59113104	      9.96501220	      0.92695303	    -22.53627563	      9.59629900	      0.00000000	      0.00000000	      0.00000000	      0.00000000
      0.06000000	     65.07236275	      4.83864699	      1.16332592	      0.55931658	      1.05744303	     -0.30789432	      1.50728845	    -13.00762930	      2.60098037	    -61.08623767	     -7.69909270	     -0.26150946	      0.00000000	      5.73583086	     -6.63061956	     10.14233800	      1.01789713	    -22.82123796	      9.67541076	      0.00000000	      0.00000000	      0.00000000	      0.00000000
      0.07000000	     65.06792421	      4.86277584	      1.17581786	      0.55912398	      1.05748019	     -0.30780009	      1.51803075	    -13.00370987	      2.58910340	    -61.12921503	     -7.75456880	     -0.25265791	      0.00000000	      5.70942513	     -6.69410664	     10.39707737	      1.13944961	    -23.21159334	      9.78976795	      0.00000000	      0.00000000	      0.00000000	      0.00000000
      0.08000000	     65.05171533	      4.89418963	      1.18374216	      0.55885945	      1.05756830	     -0.30776581	      1.53551059	    -13.00831748	      2.58700934	    -61.15166704	     -7.79238955	     -0.24400346	      0.00000000	      5.68966662	     -6.76921120	     10.69291995	      1.27791751	    -23.66057607	      9.92227467	      0.00000000	      0.00000000	      0.00000000	      0.00000000
      0.09000000	     65.02760784	      4.91825572	      1.18990515	      0.55867815	      1.05762719	     -0.30773928	      1.55507054	    -13.01623087	      2.58911699	    -61.16104639	     -7.80999263	     -0.23334472	      0.00000000	      5.67911405	     -6.83445964	     10.97824176	      1.41253307	    -24.09898981	     10.04978172	      0.00000000	      0.00000000	      0.00000000	      0.00000000
      0.10000000	     65.00128452	      4.92693320	      1.19749255	      0.55865040	      1.05762826	     -0.30771539	      1.57155698	    -13.02355819	      2.58942379	    -61.16573112	     -7.80649373	     -0.21906806	      0.00000000	      5.67927643	     -6.87599874	     11.19992477	      1.51959086	    -24.45212882	     10.14888091	      0.00000000	      0.00000000	      0.00000000	      0.00000000
      0.11000000	     64.97863321	      4.92386966	      1.20889325	      0.55870234	      1.05761850	     -0.30775013	      1.58091616	    -13.02936414	      2.58388043	    -61.17147749	     -7.78168227	     -0.20140737	      0.00000000	      5.69048847	     -6.89408423	     11.31654808	      1.57871866	    -24.65741799	     10.20149076	      0.00000000	      0.00000000	      0.00000000	      0.00000000
      0.12000000	     64.96402690	      4.91580857	      1.22544119	      0.55874094	      1.05764010	     -0.30787517	      1.58104227	    -13.03380235	      2.57079353	    -61.18087141	     -7.73584610	     -0.18296517	      0.00000000	      5.71104328	     -6.89422786	     11.30665670	      1.57890815	    -24.67769712	     10.19860067	      0.00000000	      0.00000000	      0.00000000	      0.00000000
      0.13000000	     64.95945373	      4.90355960	      1.24732737	      0.55875673	      1.05767804	     -0.30805675	      1.57166188	    -13.03591733	      2.55034311	    -61.19447945	     -7.67031650	     -0.16858760	      0.00000000	      5.73739160	     -6.87714537	     11.17193704	      1.52164064	    -24.50854500	     10.14187978	      0.00000000	      0.00000000	      0.00000000	      0.00000000
      0.14000000	     64.96428698	      4.88151871	      1.27320582	      0.55883307	      1.05767639	     -0.30823380	      1.55382114	    -13.03430448	      2.52453391	    -61.21151638	     -7.58828818	     -0.16487120	      0.00000000	      5.76515461	     -6.83832943	     10.93659311	      1.41967939	    -24.17939324	     10.04338763	      0.00000000	      0.00000000	      0.00000000	      0.00000000
      0.15000000	     64.97589090	      4.84631909	      1.29983893	      0.55904720	      1.05760209	     -0.30837645	      1.52970127	    -13.02993568	      2.49759904	    -61.22940291	     -7.49531862	     -0.17948849	      0.00000000	      5.79046948	     -6.77743120	     10.64312781	      1.29252486	    -23.74799651	      9.92326947	      0.00000000	      0.00000000	      0.00000000	      0.00000000
      0.16000000	     64.99111981	      4.80613977	      1.32253830	      0.55933157	      1.05750111	     -0.30851815	      1.50275720	    -13.02739555	      2.47560707	    -61.24357255	     -7.39904385	     -0.22034574	      0.00000000	      5.81130114	     -6.70709967	     10.34353170	      1.16104028	    -23.28792517	      9.80517627	      0.00000000	      0.00000000	      0.00000000	      0.00000000
      0.17000000	     65.00721135	      4.77636745	      1.33685788	      0.55952306	      1.05745360	     -0.30870426	      1.47742337	    -13.03230031	      2.46449807	    -61.24895834	     -7.30804859	     -0.29454131	      0.00000000	      5.82722845	     -6.64710980	     10.08623890	      1.04312510	    -22.87076393	      9.71011438	      0.00000000	      0.00000000	      0.00000000	      0.00000000
      0.18000000	     65.02163762	      4.76486292	      1.34092035	      0.55956676	      1.05746989	     -0.30889552	      1.45800665	    -13.04708379	      2.46753016	    -61.24262706	     -7.23029184	     -0.40718050	      0.00000000	      5.83813299	     -6.60838714	      9.90318535	      0.95079544	    -22.54863780	      9.65085379	      0.00000000	      0.00000000	      0.00000000	      0.00000000
      0.19000000	     65.03223673	      4.76730423	      1.33664147	      0.55954125	      1.05749516	     -0.30901092	      1.44728209	    -13.06918476	      2.48389920	    -61.22547649	     -7.17170689	     -0.56020605	      0.00000000	      5.84424274	     -6.58782698	      9.80319032	      0.88856439	    -22.34421340	      9.62930863	      0.00000000	      0.00000000	      0.00000000	      0.00000000
      0.20000000	     65.03797309	      4.77502959	      1.32879583	      0.55951710	      1.05749331	     -0.30904170	      1.44567289	    -13.09294826	      2.50935105	    -61.20158474	     -7.13543130	     -0.75146195	      0.00000000	      5.84715448	     -6.57662173	      9.77423615	      0.85364072	    -22.25117586	      9.63784920	      0.00000000	      0.00000000	      0.00000000	      0.00000000
      0.21000000	     65.03957420	      4.78219919	      1.32262904	      0.55949837	      1.05746946	     -0.30904215	      1.45150478	    -13.11311711	      2.53821735	    -61.17577118	     -7.12175098	     -0.97423573	      0.00000000	      5.84974711	     -6.56858209	      9.79212357	      0.83815611	    -22.24279590	      9.66347276	      0.00000000	      0.00000000	      0.00000000	      0.00000000
      0.22000000	     65.03927135	      4.78699422	      1.32150198	      0.55946762	      1.05743488	     -0.30904284	      1.46191756	    -13.12724838	      2.56563386	    -61.15115641	     -7.12855819	     -1.21751395	      0.00000000	      5.85469454	     -6.56192561	      9.83074603	      0.83249425	    -22.28384868	      9.69266521	      0.00000000	      0.00000000	      0.00000000	      0.00000000
      0.23000000	     65.03947756	      4.78983113	      1.32568137	      0.55942296	      1.05739036	     -0.30902742	      1.47368845	    -13.13603082	      2.58892877	    -61.12807093	     -7.15205723	     -1.46705089	      0.00000000	      5.86269375	     -6.55694589	      9.86987445	      0.82833405	    -22.34146233	      9.71504600	      0.00000000	      0.00000000	      0.00000000	      0.00000000
      0.24000000	     65.04140794	      4.79196889	      1.33265795	      0.55937401	      1.05733722	     -0.30898342	      1.48373509	    -13.14213632	      2.60790105	    -61.10448765	     -7.18748712	     -1.70714610	      0.00000000	      5.87176994	     -6.55370948	      9.89854215	      0.82053231	    -22.39215107	      9.72494923	      0.00000000	      0.00000000	      0.00000000	      0.00000000
      0.25000000	     65.04499933	      4.79465712	      1.33857396	      0.55933119	      1.05728533	     -0.30892972	      1.48946879	    -13.14879522	      2.62428069	    -61.07741357	     -7.22968533	     -1.92284919	      0.00000000	      5.87851497	     -6.55108467	      9.91439715	      0.80786885	    -22.42418087	      9.72118057	      0.00000000	      0.00000000	      0.00000000	      0.00000000
      0.26000000	     65.04990988	      4.79831615	      1.33995702	      0.55930144	      1.05725042	     -0.30888791	      1.48920356	    -13.15866029	      2.64071077	    -61.04449435	     -7.27344422	     -2.10213566	      0.00000000	      5.88039744	     -6.54680901	      9.92070280	      0.79267314	    -22.43603596	      9.70573475	      0.00000000	      0.00000000	      0.00000000	      0.00000000
